<mxfile host="65bd71144e">
    <diagram id="_79TPVmc5dYTItkwT_Xt" name="Página-1">
        <mxGraphModel dx="487" dy="516" grid="1" gridSize="10" guides="1" tooltips="1" connect="1" arrows="1" fold="1" page="1" pageScale="1" pageWidth="827" pageHeight="1169" math="0" shadow="0">
            <root>
                <mxCell id="0"/>
                <mxCell id="1" parent="0"/>
                <mxCell id="2" value="user" style="swimlane;fontStyle=1;align=center;verticalAlign=middle;childLayout=stackLayout;horizontal=1;startSize=29;horizontalStack=0;resizeParent=1;resizeParentMax=0;resizeLast=0;collapsible=0;marginBottom=0;html=1;" parent="1" vertex="1">
                    <mxGeometry x="60" y="40" width="140" height="109" as="geometry"/>
                </mxCell>
                <mxCell id="11" value="&lt;div style=&quot;&quot;&gt;&lt;span style=&quot;color: rgb(255, 255, 255); font-family: &amp;quot;Söhne Mono&amp;quot;, Monaco, &amp;quot;Andale Mono&amp;quot;, &amp;quot;Ubuntu Mono&amp;quot;, monospace; font-size: 14px;&quot;&gt;id&lt;/span&gt;&lt;/div&gt;&lt;span style=&quot;color: rgb(255, 255, 255); font-family: &amp;quot;Söhne Mono&amp;quot;, Monaco, &amp;quot;Andale Mono&amp;quot;, &amp;quot;Ubuntu Mono&amp;quot;, monospace; font-size: 14px; font-style: normal; font-variant-ligatures: normal; font-variant-caps: normal; font-weight: 400; letter-spacing: normal; orphans: 2; text-indent: 0px; text-transform: none; widows: 2; word-spacing: 0px; -webkit-text-stroke-width: 0px; text-decoration-thickness: initial; text-decoration-style: initial; text-decoration-color: initial; float: none; display: inline !important;&quot;&gt;name&lt;br&gt;email&lt;br&gt;password &lt;/span&gt;" style="text;html=1;align=left;verticalAlign=middle;resizable=0;points=[];autosize=1;strokeColor=none;fillColor=none;" parent="2" vertex="1">
                    <mxGeometry y="29" width="140" height="80" as="geometry"/>
                </mxCell>
                <mxCell id="5" value="purchase" style="swimlane;fontStyle=1;align=center;verticalAlign=middle;childLayout=stackLayout;horizontal=1;startSize=29;horizontalStack=0;resizeParent=1;resizeParentMax=0;resizeLast=0;collapsible=0;marginBottom=0;html=1;" parent="1" vertex="1">
                    <mxGeometry x="170" y="250" width="140" height="139" as="geometry"/>
                </mxCell>
                <mxCell id="13" value="&lt;div style=&quot;&quot;&gt;&lt;span style=&quot;color: rgb(255, 255, 255); font-family: &amp;quot;Söhne Mono&amp;quot;, Monaco, &amp;quot;Andale Mono&amp;quot;, &amp;quot;Ubuntu Mono&amp;quot;, monospace; font-size: 14px;&quot;&gt;id&lt;/span&gt;&lt;/div&gt;&lt;div style=&quot;&quot;&gt;&lt;span style=&quot;color: rgb(255, 255, 255); font-family: &amp;quot;Söhne Mono&amp;quot;, Monaco, &amp;quot;Andale Mono&amp;quot;, &amp;quot;Ubuntu Mono&amp;quot;, monospace; font-size: 14px;&quot;&gt;userId&lt;/span&gt;&lt;/div&gt;&lt;div style=&quot;&quot;&gt;&lt;span style=&quot;color: rgb(255, 255, 255); font-family: &amp;quot;Söhne Mono&amp;quot;, Monaco, &amp;quot;Andale Mono&amp;quot;, &amp;quot;Ubuntu Mono&amp;quot;, monospace; font-size: 14px;&quot;&gt;products&lt;/span&gt;&lt;/div&gt;&lt;div style=&quot;&quot;&gt;&lt;span style=&quot;color: rgb(255, 255, 255); font-family: &amp;quot;Söhne Mono&amp;quot;, Monaco, &amp;quot;Andale Mono&amp;quot;, &amp;quot;Ubuntu Mono&amp;quot;, monospace; font-size: 14px;&quot;&gt;totalAmount&lt;/span&gt;&lt;/div&gt;&lt;div style=&quot;&quot;&gt;&lt;span style=&quot;color: rgb(255, 255, 255); font-family: &amp;quot;Söhne Mono&amp;quot;, Monaco, &amp;quot;Andale Mono&amp;quot;, &amp;quot;Ubuntu Mono&amp;quot;, monospace; font-size: 14px;&quot;&gt;createdAt&lt;/span&gt;&lt;/div&gt;&lt;div style=&quot;&quot;&gt;&lt;span style=&quot;border: 0px solid rgb(217, 217, 227); box-sizing: border-box; --tw-border-spacing-x: 0; --tw-border-spacing-y: 0; --tw-translate-x: 0; --tw-translate-y: 0; --tw-rotate: 0; --tw-skew-x: 0; --tw-skew-y: 0; --tw-scale-x: 1; --tw-scale-y: 1; --tw-pan-x: ; --tw-pan-y: ; --tw-pinch-zoom: ; --tw-scroll-snap-strictness: proximity; --tw-gradient-from-position: ; --tw-gradient-via-position: ; --tw-gradient-to-position: ; --tw-ordinal: ; --tw-slashed-zero: ; --tw-numeric-figure: ; --tw-numeric-spacing: ; --tw-numeric-fraction: ; --tw-ring-inset: ; --tw-ring-offset-width: 0px; --tw-ring-offset-color: #fff; --tw-ring-color: rgba(69,89,164,0.5); --tw-ring-offset-shadow: 0 0 transparent; --tw-ring-shadow: 0 0 transparent; --tw-shadow: 0 0 transparent; --tw-shadow-colored: 0 0 transparent; --tw-blur: ; --tw-brightness: ; --tw-contrast: ; --tw-grayscale: ; --tw-hue-rotate: ; --tw-invert: ; --tw-saturate: ; --tw-sepia: ; --tw-drop-shadow: ; --tw-backdrop-blur: ; --tw-backdrop-brightness: ; --tw-backdrop-contrast: ; --tw-backdrop-grayscale: ; --tw-backdrop-hue-rotate: ; --tw-backdrop-invert: ; --tw-backdrop-opacity: ; --tw-backdrop-saturate: ; --tw-backdrop-sepia: ; color: rgb(233, 149, 12); font-family: &amp;quot;Söhne Mono&amp;quot;, Monaco, &amp;quot;Andale Mono&amp;quot;, &amp;quot;Ubuntu Mono&amp;quot;, monospace; font-size: 14px;&quot; class=&quot;hljs-built_in&quot;&gt;status&lt;/span&gt;&lt;/div&gt;" style="text;html=1;align=left;verticalAlign=middle;resizable=0;points=[];autosize=1;strokeColor=none;fillColor=none;labelBackgroundColor=none;" parent="5" vertex="1">
                    <mxGeometry y="29" width="140" height="110" as="geometry"/>
                </mxCell>
                <mxCell id="6" value="product" style="swimlane;fontStyle=1;align=center;verticalAlign=middle;childLayout=stackLayout;horizontal=1;startSize=29;horizontalStack=0;resizeParent=1;resizeParentMax=0;resizeLast=0;collapsible=0;marginBottom=0;html=1;" parent="1" vertex="1">
                    <mxGeometry x="280" y="40" width="140" height="140" as="geometry"/>
                </mxCell>
                <mxCell id="8" value="" style="endArrow=ERmany;startArrow=ERone;endFill=0;startFill=0;endSize=8;html=1;labelBackgroundColor=none;exitX=0.5;exitY=1;exitDx=0;exitDy=0;entryX=0;entryY=0.48;entryDx=0;entryDy=0;entryPerimeter=0;edgeStyle=orthogonalEdgeStyle;strokeWidth=2;" parent="1" source="2" target="13" edge="1">
                    <mxGeometry width="160" relative="1" as="geometry">
                        <mxPoint x="170" y="270" as="sourcePoint"/>
                        <mxPoint x="330" y="270" as="targetPoint"/>
                        <Array as="points">
                            <mxPoint x="130" y="327"/>
                        </Array>
                    </mxGeometry>
                </mxCell>
                <mxCell id="9" value="" style="endArrow=ERmany;startArrow=ERone;endFill=0;startFill=0;endSize=8;html=1;labelBackgroundColor=none;edgeStyle=orthogonalEdgeStyle;strokeWidth=2;exitX=0.709;exitY=1.028;exitDx=0;exitDy=0;exitPerimeter=0;" parent="1" source="14" edge="1">
                    <mxGeometry width="160" relative="1" as="geometry">
                        <mxPoint x="410" y="180" as="sourcePoint"/>
                        <mxPoint x="310" y="330" as="targetPoint"/>
                        <Array as="points">
                            <mxPoint x="361" y="330"/>
                            <mxPoint x="310" y="330"/>
                        </Array>
                    </mxGeometry>
                </mxCell>
                <mxCell id="14" value="&lt;span style=&quot;color: rgb(255, 255, 255); font-family: &amp;quot;Söhne Mono&amp;quot;, Monaco, &amp;quot;Andale Mono&amp;quot;, &amp;quot;Ubuntu Mono&amp;quot;, monospace; font-size: 14px;&quot;&gt;id&lt;br&gt;name&lt;br&gt;description&lt;br&gt;price&lt;br&gt;quantity&lt;br&gt;category&lt;/span&gt;" style="text;html=1;align=left;verticalAlign=middle;resizable=0;points=[];autosize=1;strokeColor=none;fillColor=none;" parent="1" vertex="1">
                    <mxGeometry x="290" y="70" width="100" height="110" as="geometry"/>
                </mxCell>
            </root>
        </mxGraphModel>
    </diagram>
</mxfile>
